<svg class="prefix__comet" xmlns="http://www.w3.org/2000/svg" width="39" height="28"><g fill="#FFF"><circle cx="37.54" cy="1.66" opacity=".02" transform="scale(-1 1) rotate(-55.042 0 73.713)" r="1"/><circle cx="36.78" cy="2.2" opacity=".04" transform="scale(-1 1) rotate(-55.046 0 72.792)" r="1"/><circle cx="36.11" cy="2.67" opacity=".06" transform="scale(-1 1) rotate(-55.054 0 71.959)" r="1"/><circle cx="35.41" cy="3.07" opacity=".08" transform="scale(-1 1) rotate(-55.062 0 70.998)" r="1"/><circle cx="34.75" cy="3.63" opacity=".1" transform="scale(-1 1) rotate(-55.067 0 70.284)" r="1"/><circle cx="34.03" cy="4.12" opacity=".12" transform="scale(-1 1) rotate(-55.075 0 69.39)" r="1"/><circle cx="33.25" cy="4.63" opacity=".14" transform="scale(-1 1) rotate(-55.075 0 68.392)" r="1"/><circle cx="32.59" cy="5.09" opacity=".16" transform="scale(-1 1) rotate(-55.083 0 67.57)" r="1"/><circle cx="31.9" cy="5.58" opacity=".18" transform="scale(-1 1) rotate(-55.088 0 66.735)" r="1"/><circle cx="31.24" cy="6.03" opacity=".2" transform="scale(-1 1) rotate(-55.096 0 65.918)" r="1"/><circle cx="30.45" cy="6.62" opacity=".22" transform="scale(-1 1) rotate(-55.096 0 64.99)" r="1"/><circle cx="29.75" cy="7.02" opacity=".24" transform="scale(-1 1) rotate(-55.104 0 64.046)" r="1"/><circle cx="29.11" cy="7.56" opacity=".25" transform="scale(-1 1) rotate(-55.108 0 63.349)" r="1"/><circle cx="28.33" cy="7.96" opacity=".27" transform="scale(-1 1) rotate(-55.112 0 62.25)" r="1"/><circle cx="27.63" cy="8.54" opacity=".29" transform="scale(-1 1) rotate(-55.116 0 61.488)" r="1"/><circle cx="26.98" cy="8.98" opacity=".31" transform="scale(-1 1) rotate(-55.124 0 60.681)" r="1"/><circle cx="26.22" cy="9.47" opacity=".33" transform="scale(-1 1) rotate(-55.124 0 59.7)" r="1"/><circle cx="25.57" cy="9.92" opacity=".35" transform="scale(-1 1) rotate(-55.132 0 58.897)" r="1"/><circle cx="24.84" cy="10.46" opacity=".37" transform="scale(-1 1) rotate(-55.132 0 58.05)" r="1"/><circle cx="24.11" cy="10.98" opacity=".39" transform="scale(-1 1) rotate(-55.137 0 57.166)" r="1"/><circle cx="23.47" cy="11.42" opacity=".41" transform="scale(-1 1) rotate(-55.145 0 56.367)" r="1"/><circle cx="22.71" cy="11.9" opacity=".43" transform="scale(-1 1) rotate(-55.145 0 55.393)" r="1"/><circle cx="22.08" cy="12.43" opacity=".45" transform="scale(-1 1) rotate(-55.15 0 54.712)" r="1"/><circle cx="21.29" cy="12.92" opacity=".47" transform="scale(-1 1) rotate(-55.153 0 53.687)" r="1"/><ellipse cx="20.62" cy="13.39" opacity=".49" rx="1.02" ry="1.01" transform="scale(-1 1) rotate(-55.158 0 52.879)"/><ellipse cx="19.89" cy="13.84" opacity=".51" rx="1.02" ry="1.01" transform="scale(-1 1) rotate(-55.161 0 51.924)"/><ellipse cx="19.23" cy="14.31" opacity=".53" rx="1.02" ry="1.01" transform="scale(-1 1) rotate(-55.166 0 51.118)"/><ellipse cx="18.51" cy="14.85" opacity=".55" rx="1.02" ry="1.01" transform="scale(-1 1) rotate(-55.166 0 50.28)"/><ellipse cx="17.83" cy="15.41" opacity=".57" rx="1.02" ry="1.01" transform="scale(-1 1) rotate(-55.17 0 49.54)"/><ellipse cx="17.06" cy="15.8" opacity=".59" rx="1.02" ry="1.01" transform="scale(-1 1) rotate(-55.174 0 48.458)"/><ellipse cx="16.35" cy="16.33" opacity=".61" rx="1.02" ry="1.08" transform="scale(-1 1) rotate(-55.174 0 47.623)"/><ellipse cx="15.69" cy="16.8" opacity=".63" rx="1.09" ry="1.08" transform="scale(-1 1) rotate(-55.178 0 46.823)"/><ellipse cx="14.91" cy="17.28" opacity=".65" rx="1.09" ry="1.08" transform="scale(-1 1) rotate(-55.182 0 45.806)"/><ellipse cx="14.29" cy="17.8" opacity=".67" rx="1.09" ry="1.08" transform="scale(-1 1) rotate(-55.186 0 45.139)"/><ellipse cx="13.53" cy="18.28" opacity=".69" rx="1.09" ry="1.08" transform="scale(-1 1) rotate(-55.186 0 44.178)"/><ellipse cx="12.9" cy="18.71" opacity=".71" rx="1.09" ry="1.08" transform="scale(-1 1) rotate(-55.194 0 43.396)"/><ellipse cx="12.1" cy="19.22" opacity=".73" rx="1.09" ry="1.08" transform="scale(-1 1) rotate(-55.194 0 42.368)"/><circle cx="11.39" cy="19.75" opacity=".75" transform="scale(-1 1) rotate(-55.194 0 41.539)" r="1.15"/><circle cx="10.77" cy="20.27" opacity=".76" transform="scale(-1 1) rotate(-55.199 0 40.876)" r="1.15"/><circle cx="10.01" cy="20.65" opacity=".78" transform="scale(-1 1) rotate(-55.202 0 39.802)" r="1.15"/><circle cx="9.3" cy="21.18" opacity=".8" transform="scale(-1 1) rotate(-55.202 0 38.975)" r="1.15"/><circle cx="8.63" cy="21.74" opacity=".82" transform="scale(-1 1) rotate(-55.207 0 38.247)" r="1.15"/><circle cx="7.89" cy="22.21" opacity=".84" transform="scale(-1 1) rotate(-55.207 0 37.292)" r="1.15"/><circle cx="7.17" cy="22.65" opacity=".86" transform="scale(-1 1) rotate(-55.21 0 36.35)" r="1.22"/><circle cx="6.51" cy="23.11" opacity=".88" transform="scale(-1 1) rotate(-55.215 0 35.563)" r="1.22"/><circle cx="5.75" cy="23.67" opacity=".9" transform="scale(-1 1) rotate(-55.215 0 34.67)" r="1.22"/><circle cx="5.05" cy="24.2" opacity=".92" transform="scale(-1 1) rotate(-55.215 0 33.848)" r="1.22"/><circle cx="4.38" cy="24.56" opacity=".94" transform="scale(-1 1) rotate(-55.223 0 32.946)" r="1.22"/><circle cx="3.68" cy="25.09" opacity=".96" transform="scale(-1 1) rotate(-55.223 0 32.124)" r="1.22"/><ellipse cx="2.94" cy="25.56" opacity=".98" rx="1.29" ry="1.28" transform="scale(-1 1) rotate(-55.223 0 31.172)"/><path d="M1.51 25.027c.61-.406 1.358-.27 1.765.338.408.541.272 1.353-.34 1.758-.543.406-1.358.27-1.765-.338-.34-.54-.204-1.352.34-1.758z"/></g></svg>