<svg width="329px" height="387px" viewBox="0 0 329 387" version="1.1" xmlns="http://www.w3.org/2000/svg" xmlns:xlink="http://www.w3.org/1999/xlink">
    <g id="Page-1" stroke="none" stroke-width="1" fill="none" fill-rule="evenodd">
        <g id="travel" fill-rule="nonzero">
            <path d="M270.658,130.584 L268.464,128.39 L259.42,119.346 L257.226,117.152 C250.09,119.859 241.157,131.558 237.633,138.939 L238.728,140.038 L247.772,149.082 L248.871,150.181 C256.252,146.652 267.951,137.724 270.658,130.588 L270.658,130.584 L270.658,130.584 Z" id="Path" fill="#FBB429"></path>
            <path d="M270.658,130.584 L268.464,128.39 L259.42,119.346 L257.226,117.152 C255.577,117.78 253.84,118.884 252.085,120.302 L267.507,135.724 C268.925,133.973 270.029,132.232 270.657,130.588 L270.657,130.584 L270.658,130.584 Z" id="Path" fill="#FFFFFF"></path>
            <path d="M285.803,173.589 L283.609,171.395 L274.565,162.351 L272.371,160.157 C265.235,162.864 256.302,174.563 252.778,181.944 L253.877,183.043 L262.921,192.087 L264.02,193.186 C271.401,189.657 283.1,180.729 285.807,173.589 L285.803,173.589 L285.803,173.589 Z" id="Path" fill="#FBB429"></path>
            <path d="M285.803,173.589 L283.609,171.4 L274.565,162.352 L272.371,160.163 C270.722,160.787 268.985,161.89 267.23,163.313 L282.652,178.735 C284.07,176.984 285.178,175.243 285.802,173.594 L285.802,173.589 L285.803,173.589 Z" id="Path" fill="#FFFFFF"></path>
            <path d="M162.334,22.26 L164.528,24.454 L173.572,33.498 L175.766,35.692 C173.059,42.828 161.36,51.761 153.979,55.289 L152.88,54.19 L143.836,45.146 L142.737,44.047 C146.266,36.671 155.194,24.967 162.33,22.26 L162.334,22.26 L162.334,22.26 Z" id="Path" fill="#FBB429"></path>
            <path d="M162.334,22.26 L164.528,24.454 L173.572,33.498 L175.766,35.692 C175.142,37.341 174.039,39.082 172.616,40.833 L157.193,25.41 C158.944,23.987 160.685,22.884 162.334,22.26 Z" id="Path" fill="#FFFFFF"></path>
            <path d="M119.328,7.12 L121.522,9.314 L130.566,18.358 L132.76,20.552 C130.053,27.688 118.354,36.621 110.973,40.145 L109.874,39.046 L100.83,30.002 L99.731,28.903 C103.26,21.527 112.188,9.823 119.324,7.116 L119.328,7.12 Z" id="Path" fill="#FBB429"></path>
            <g id="Group" transform="translate(37.000000, 0.000000)" fill="#FFFFFF">
                <path d="M82.328,7.12 L84.522,9.314 L93.57,18.358 L95.759,20.552 C95.135,22.201 94.032,23.942 92.614,25.693 L77.188,10.27 C78.938,8.847 80.679,7.743 82.328,7.12 Z" id="Path"></path>
                <path d="M50.205,211.001 L76.74,248.727 L85.202,238.496 L70.186,198.825 C72.07,197.199 68.528,200.423 76.278,193.449 C84.028,186.475 118.083,155.169 148.927,130.093 L237.76,255.668 L245.861,247.567 L196.759,91.051 C216.828,74.507 232.356,61.311 236.54,56.53 C249.329,41.916 260.899,22.425 251.768,4.158 C233.496,-4.978 214.01,6.597 199.396,19.381 C194.611,23.566 181.42,39.094 164.875,59.162 L8.359,10.062 L0.258,18.163 L125.829,106.996 C100.758,137.845 69.448,171.894 62.478,179.645 C55.499,187.395 58.728,183.853 57.102,185.737 L17.431,170.721 L7.2,179.183 L44.926,205.718 C40.829,212.766 43.162,215.099 50.21,211.002 L50.205,211.002 L50.205,211.001 Z" id="Path"></path>
            </g>
            <g id="Group" transform="translate(37.000000, 15.000000)" fill="#C8CACC">
                <polygon id="Path" points="50.205 196.001 76.74 233.727 78.781 231.261 53.059 194.034 50.209 196.002 50.205 196.002"></polygon>
                <polygon id="Path" points="9.661 162.141 7.195 164.183 44.921 190.718 46.889 187.868 9.657 162.141"></polygon>
                <polygon id="Path" points="148.931 115.09 237.764 240.665 240.886 237.538 154.178 110.808"></polygon>
                <polygon id="Path" points="3.375 0.036 0.253 3.163 125.824 91.996 130.106 86.749 3.37 0.041"></polygon>
            </g>
            <path d="M281.133,11.785 C279.336,9.988 277.161,8.723 274.745,7.97 L273.281,12.058 C274.805,12.968 276.237,14.076 277.544,15.379 C278.846,16.686 279.955,18.118 280.865,19.638 L284.953,18.174 C284.2,15.763 282.935,13.588 281.138,11.786 L281.133,11.786 L281.133,11.785 Z M271.48,7.277 L271.48,7.277 C267.753,6.829 263.665,7.416 259.614,8.972 C263.263,8.667 266.93,9.198 270.297,10.57 L271.48,7.277 Z M282.353,22.625 L282.353,22.625 C283.729,25.992 284.256,29.655 283.951,33.308 C285.512,29.257 286.094,25.17 285.646,21.442 L282.353,22.625 Z" id="Shape" fill="#15BDB1"></path>
            <path d="M59.848,235.592 L59.88,235.56 L60.416,235.043 L60.947,234.53 L61.487,234.008 L62.027,233.486 L62.567,232.964 L63.112,232.437 L63.657,231.91 L64.207,231.383 L64.761,230.852 L65.311,230.321 L65.865,229.785 L66.419,229.245 L66.978,228.705 L67.537,228.16 L68.1,227.615 L68.668,227.07 L69.236,226.52 L69.804,225.97 L70.377,225.416 L70.95,224.857 L71.527,224.298 L72.104,223.739 L72.681,223.175 L73.263,222.607 L73.845,222.039 L74.432,221.466 L75.019,220.893 L75.61,220.316 L76.201,219.734 L76.792,219.152 L73.49,215.79 L72.899,216.367 L72.312,216.944 L71.725,217.517 L71.138,218.094 L70.556,218.662 L69.979,219.23 L69.402,219.794 L68.825,220.357 L68.252,220.916 L67.679,221.47 L67.106,222.024 L66.538,222.578 L65.97,223.128 L65.402,223.678 L64.839,224.223 L64.276,224.768 L63.717,225.308 L63.158,225.844 L62.604,226.384 L62.05,226.92 L61.496,227.451 L60.946,227.982 L60.396,228.509 L59.851,229.036 L59.306,229.558 L58.761,230.08 L58.221,230.602 L57.685,231.119 L57.149,231.641 L56.613,232.154 L56.581,232.186 L59.851,235.581 L59.848,235.592 Z M323.921,233.647 L323.921,233.647 L323.362,235.107 L322.803,236.548 L322.244,237.966 L321.685,239.361 L321.122,240.737 L320.558,242.09 L319.995,243.425 L319.432,244.737 L318.868,246.03 L318.3,247.3 L317.737,248.556 L317.169,249.789 L316.601,250.999 L316.033,252.191 L316.005,252.246 L320.24,254.32 L320.282,254.237 L320.864,253.013 L321.446,251.771 L322.023,250.51 L322.605,249.231 L323.182,247.933 L323.759,246.612 L324.336,245.273 L324.909,243.91 L325.482,242.534 L326.059,241.13 L326.627,239.707 L327.2,238.266 L327.768,236.802 L328.336,235.315 L323.93,233.643 L323.921,233.647 Z M309.432,264.547 L309.432,264.547 L309.141,265.027 L308.564,265.978 L307.987,266.911 L307.41,267.83 L306.828,268.726 L306.246,269.604 L305.664,270.468 L305.082,271.313 L304.5,272.144 L303.918,272.957 L303.336,273.756 L302.749,274.537 L302.167,275.304 L301.58,276.052 L300.993,276.786 L300.402,277.507 L299.815,278.209 L299.228,278.897 L298.641,279.567 L298.05,280.227 L297.463,280.869 L296.872,281.497 L296.281,282.111 L295.69,282.711 L295.588,282.813 L298.89,286.18 L299.033,286.037 L299.666,285.395 L300.294,284.739 L300.922,284.069 L301.55,283.385 L302.174,282.688 L302.798,281.977 L303.417,281.247 L304.036,280.503 L304.655,279.741 L305.274,278.97 L305.888,278.18 L306.502,277.376 L307.116,276.558 L307.726,275.722 L308.336,274.868 L308.946,274 L309.551,273.113 L310.161,272.212 L310.761,271.293 L311.366,270.36 L311.966,269.409 L312.571,268.439 L313.171,267.451 L313.457,266.966 L309.416,264.537 L309.432,264.547 Z M284.981,291.29 L284.981,291.29 L284.967,291.299 L284.362,291.664 L283.757,292.02 L283.152,292.362 L282.547,292.695 L281.937,293.018 L281.332,293.327 L280.722,293.632 L280.112,293.923 L279.502,294.205 L278.892,294.478 L278.278,294.741 L277.664,294.995 L277.05,295.24 L276.436,295.48 L275.817,295.706 L275.198,295.928 L274.579,296.14 L273.96,296.343 L273.336,296.542 L272.712,296.727 L272.084,296.907 L271.46,297.083 L270.832,297.245 L270.204,297.402 L269.571,297.55 L268.938,297.693 L268.305,297.827 L267.668,297.956 L267.031,298.076 L266.394,298.191 L265.752,298.302 L265.11,298.404 L264.468,298.501 L263.821,298.593 L263.784,298.598 L264.384,303.277 L264.463,303.263 L265.156,303.166 L265.844,303.064 L266.528,302.953 L267.216,302.838 L267.904,302.713 L268.592,302.584 L269.276,302.445 L269.96,302.297 L270.639,302.145 L271.323,301.983 L272.007,301.812 L272.691,301.632 L273.375,301.447 L274.049,301.253 L274.728,301.05 L275.402,300.838 L276.076,300.616 L276.755,300.385 L277.429,300.145 L278.099,299.896 L278.773,299.637 L279.443,299.369 L280.113,299.092 L280.783,298.801 L281.453,298.501 L282.118,298.192 L282.783,297.873 L283.448,297.545 L284.113,297.203 L284.778,296.852 L285.438,296.487 L286.098,296.113 L286.758,295.73 L287.414,295.333 L287.428,295.324 L284.966,291.306 L284.981,291.29 Z M249.989,299.386 L249.989,299.386 L249.91,299.386 L249.231,299.381 L248.547,299.372 L247.863,299.363 L247.175,299.349 L246.487,299.335 L245.799,299.317 L245.106,299.299 L244.413,299.276 L243.716,299.253 L243.019,299.23 L242.322,299.207 L241.625,299.179 L240.923,299.151 L240.216,299.128 L239.509,299.1 L238.802,299.072 L238.095,299.04 L237.388,299.012 L236.677,298.984 L235.966,298.956 L235.25,298.928 L234.534,298.9 L233.818,298.872 L233.097,298.844 L232.376,298.816 L231.651,298.788 L230.926,298.765 L230.201,298.742 L229.471,298.719 L228.741,298.696 L228.011,298.678 L227.277,298.66 L226.543,298.646 L226.469,298.641 L226.386,303.357 L226.451,303.357 L227.172,303.371 L227.893,303.389 L228.614,303.407 L229.33,303.43 L230.051,303.453 L230.772,303.476 L231.488,303.499 L232.204,303.527 L232.92,303.555 L233.636,303.583 L234.347,303.611 L235.058,303.639 L235.769,303.667 L236.48,303.695 L237.191,303.723 L237.902,303.751 L238.613,303.779 L239.324,303.807 L240.035,303.835 L240.742,303.863 L241.449,303.891 L242.16,303.919 L242.862,303.942 L243.569,303.965 L244.276,303.988 L244.983,304.006 L245.69,304.024 L246.397,304.042 L247.099,304.056 L247.801,304.07 L248.503,304.079 L249.205,304.088 L249.907,304.093 L249.986,304.093 L250.004,299.377 L249.989,299.386 Z M212.096,298.966 L212.096,298.966 L211.486,299.012 L210.719,299.077 L209.943,299.146 L209.176,299.22 L208.4,299.299 L207.624,299.387 L206.848,299.479 L206.072,299.576 L205.291,299.678 L204.51,299.793 L203.725,299.913 L202.94,300.042 L202.155,300.171 L201.37,300.314 L200.58,300.462 L199.79,300.614 L198.996,300.776 L198.202,300.947 L197.408,301.127 L196.609,301.316 L195.81,301.515 L195.006,301.718 L194.207,301.926 L193.403,302.148 L192.599,302.379 L191.795,302.619 L190.987,302.868 L190.179,303.127 L189.366,303.395 L188.553,303.677 L188.447,303.714 L190.045,308.153 L190.11,308.13 L190.877,307.867 L191.639,307.618 L192.401,307.373 L193.163,307.137 L193.925,306.915 L194.687,306.693 L195.444,306.485 L196.201,306.282 L196.958,306.088 L197.715,305.903 L198.468,305.723 L199.221,305.557 L199.974,305.395 L200.722,305.243 L201.47,305.095 L202.223,304.956 L202.971,304.827 L203.719,304.698 L204.467,304.578 L205.211,304.467 L205.959,304.361 L206.703,304.259 L207.447,304.167 L208.191,304.079 L208.93,303.996 L209.669,303.917 L210.413,303.843 L211.147,303.778 L211.886,303.718 L212.496,303.672 L212.126,298.97 L212.096,298.966 Z M175.192,309.695 L175.192,309.695 L174.564,310.046 L173.728,310.526 L172.892,311.02 L172.056,311.523 L171.215,312.045 L170.379,312.576 L169.538,313.121 L168.702,313.675 L167.861,314.248 L167.02,314.83 L166.175,315.43 L165.33,316.044 L164.489,316.672 L163.644,317.309 L162.799,317.965 L161.954,318.635 L161.104,319.319 L160.254,320.016 L159.404,320.727 L158.55,321.452 L157.696,322.2 L156.846,322.957 L155.992,323.728 L155.78,323.927 L158.995,327.377 L159.175,327.215 L159.997,326.467 L160.819,325.737 L161.637,325.026 L162.455,324.329 L163.268,323.645 L164.086,322.975 L164.894,322.319 L165.707,321.682 L166.515,321.058 L167.323,320.444 L168.131,319.844 L168.935,319.262 L169.739,318.694 L170.543,318.135 L171.342,317.595 L172.141,317.064 L172.94,316.547 L173.739,316.044 L174.533,315.554 L175.327,315.074 L176.117,314.608 L176.907,314.151 L177.535,313.8 L175.203,309.699 L175.192,309.695 Z M145.734,334.193 L145.734,334.193 L145.651,334.281 L144.783,335.269 L143.938,336.239 L143.093,337.195 L142.248,338.142 L141.407,339.075 L140.566,339.999 L139.725,340.909 L138.889,341.805 L138.053,342.692 L137.222,343.57 L136.391,344.434 L135.56,345.288 L134.733,346.129 L133.906,346.96 L133.079,347.778 L132.257,348.586 L131.435,349.385 L130.617,350.17 L129.799,350.946 L129.642,351.089 L132.852,354.539 L133.028,354.377 L133.869,353.583 L134.71,352.779 L135.551,351.966 L136.392,351.139 L137.237,350.298 L138.082,349.448 L138.927,348.584 L139.777,347.716 L140.627,346.834 L141.481,345.943 L142.331,345.038 L143.185,344.119 L144.039,343.191 L144.898,342.253 L145.757,341.302 L146.616,340.337 L147.48,339.362 L148.344,338.378 L149.185,337.417 L149.268,337.329 L145.739,334.202 L145.734,334.193 Z M119.088,360.211 L119.088,360.211 L118.52,360.659 L117.735,361.273 L116.945,361.878 L116.16,362.474 L115.375,363.061 L114.594,363.638 L113.818,364.201 L113.042,364.755 L112.266,365.3 L111.495,365.836 L110.724,366.363 L109.953,366.88 L109.186,367.388 L108.424,367.887 L107.662,368.372 L106.9,368.848 L106.143,369.319 L105.386,369.776 L104.629,370.224 L103.881,370.663 L103.133,371.093 L102.385,371.513 L101.641,371.929 L100.897,372.331 L100.158,372.724 L99.802,372.909 L101.964,377.103 L102.357,376.9 L103.133,376.484 L103.909,376.064 L104.685,375.634 L105.466,375.191 L106.247,374.743 L107.028,374.286 L107.813,373.815 L108.598,373.339 L109.388,372.854 L110.178,372.355 L110.972,371.852 L111.766,371.335 L112.56,370.808 L113.359,370.272 L114.158,369.727 L114.962,369.173 L115.766,368.609 L116.57,368.032 L117.378,367.445 L118.186,366.849 L118.994,366.244 L119.807,365.63 L120.625,365.002 L121.438,364.365 L122.001,363.917 L119.087,360.208 L119.088,360.211 Z M87.163,378.321 L87.163,378.321 L86.544,378.524 L85.851,378.746 L85.158,378.958 L84.47,379.166 L83.786,379.365 L83.102,379.554 L82.423,379.734 L81.744,379.91 L81.07,380.076 L80.4,380.233 L79.73,380.381 L79.06,380.524 L78.395,380.658 L77.735,380.787 L77.075,380.907 L76.415,381.022 L75.764,381.128 L75.113,381.225 L74.462,381.317 L73.815,381.4 L73.173,381.479 L72.531,381.548 L71.894,381.613 L71.257,381.668 L70.62,381.714 L69.992,381.756 L69.364,381.788 L68.736,381.816 L68.112,381.839 L67.493,381.853 L66.879,381.862 L66.265,381.862 L65.651,381.857 L65.046,381.848 L64.81,381.839 L64.639,386.55 L64.93,386.559 L65.59,386.573 L66.25,386.578 L66.915,386.578 L67.585,386.569 L68.255,386.551 L68.925,386.528 L69.599,386.5 L70.283,386.458 L70.962,386.412 L71.646,386.361 L72.33,386.301 L73.018,386.236 L73.711,386.157 L74.404,386.074 L75.101,385.982 L75.794,385.885 L76.496,385.783 L77.198,385.668 L77.905,385.543 L78.612,385.418 L79.323,385.279 L80.034,385.136 L80.745,384.984 L81.461,384.822 L82.182,384.651 L82.903,384.475 L83.624,384.29 L84.349,384.096 L85.079,383.893 L85.809,383.681 L86.539,383.464 L87.273,383.238 L88.007,383.002 L88.626,382.799 L87.171,378.314 L87.163,378.321 Z M51.432,379.785 L51.432,379.785 L51.201,379.72 L50.661,379.563 L50.125,379.397 L49.585,379.226 L49.049,379.05 L48.513,378.865 L47.982,378.68 L47.46,378.491 L46.933,378.292 L46.411,378.089 L45.894,377.881 L45.377,377.669 L44.864,377.452 L44.356,377.23 L43.848,377.004 L43.345,376.768 L42.846,376.532 L42.347,376.292 L41.848,376.047 L41.358,375.798 L40.873,375.544 L40.383,375.281 L39.898,375.018 L39.418,374.746 L38.942,374.473 L38.466,374.196 L37.99,373.91 L37.524,373.624 L37.057,373.333 L36.595,373.037 L36.133,372.737 L35.676,372.432 L35.219,372.127 L34.771,371.813 L34.323,371.499 L33.875,371.176 L33.432,370.853 L32.993,370.525 L32.559,370.192 L32.125,369.859 L31.695,369.522 L31.501,369.365 L28.531,373.028 L28.753,373.208 L29.215,373.573 L29.681,373.933 L30.148,374.289 L30.624,374.645 L31.1,374.996 L31.58,375.338 L32.065,375.68 L32.555,376.017 L33.045,376.345 L33.539,376.673 L34.038,376.996 L34.537,377.315 L35.04,377.634 L35.548,377.943 L36.056,378.248 L36.573,378.548 L37.09,378.844 L37.612,379.135 L38.139,379.421 L38.666,379.703 L39.197,379.98 L39.733,380.252 L40.269,380.515 L40.809,380.778 L41.354,381.037 L41.899,381.286 L42.449,381.531 L43.003,381.771 L43.562,382.007 L44.116,382.238 L44.679,382.464 L45.247,382.686 L45.815,382.898 L46.388,383.11 L46.965,383.313 L47.542,383.512 L48.124,383.701 L48.711,383.886 L49.298,384.066 L49.889,384.242 L50.12,384.307 L51.432,379.776 L51.432,379.785 Z M21.835,359.758 L21.835,359.758 L21.641,359.518 L21.299,359.093 L20.957,358.668 L20.624,358.238 L20.291,357.804 L19.963,357.37 L19.64,356.936 L19.317,356.497 L18.998,356.054 L18.684,355.611 L18.37,355.168 L18.065,354.72 L17.76,354.272 L17.46,353.819 L17.164,353.366 L16.868,352.909 L16.582,352.452 L16.296,351.99 L16.014,351.528 L15.737,351.066 L15.46,350.6 L15.187,350.134 L14.919,349.663 L14.656,349.197 L14.397,348.726 L14.138,348.25 L13.884,347.779 L13.635,347.303 L13.386,346.827 L13.146,346.347 L12.906,345.871 L12.67,345.391 L12.439,344.906 L12.213,344.421 L11.991,343.936 L11.774,343.451 L11.557,342.966 L11.345,342.481 L11.137,341.991 L10.934,341.506 L10.735,341.016 L10.536,340.526 L10.374,340.115 L5.982,341.819 L6.158,342.267 L6.366,342.789 L6.578,343.311 L6.795,343.833 L7.017,344.35 L7.239,344.867 L7.47,345.389 L7.706,345.906 L7.946,346.423 L8.186,346.936 L8.431,347.449 L8.68,347.962 L8.934,348.475 L9.193,348.983 L9.452,349.491 L9.715,349.994 L9.988,350.497 L10.261,350.996 L10.538,351.499 L10.82,351.998 L11.106,352.497 L11.397,352.991 L11.688,353.485 L11.988,353.979 L12.288,354.469 L12.588,354.954 L12.897,355.444 L13.206,355.929 L13.52,356.414 L13.839,356.894 L14.162,357.37 L14.49,357.846 L14.823,358.322 L15.156,358.793 L15.498,359.264 L15.84,359.731 L16.186,360.197 L16.537,360.659 L16.888,361.121 L17.244,361.578 L17.604,362.035 L17.969,362.492 L18.168,362.732 L21.826,359.758 L21.835,359.758 L21.835,359.758 Z M6.64,326.956 L6.64,326.956 C5.277,319.474 5.056,311.931 6.7,304.472 L2.095,303.456 C0.294,311.414 0.543,319.82 2.003,327.806 L6.64,326.952 L6.64,326.956 Z M11.171,291.673 L11.171,291.673 C14.372,284.879 19.134,278.343 23.873,272.547 L20.238,269.545 C15.287,275.526 10.248,282.579 6.931,289.614 L11.171,291.673 Z M33.147,262.071 L33.147,262.071 L33.179,262.039 L33.581,261.614 L33.983,261.189 L34.389,260.764 L34.8,260.334 L35.211,259.904 L35.622,259.474 L36.038,259.044 L36.458,258.61 L36.878,258.176 L37.298,257.742 L37.723,257.308 L38.153,256.869 L38.583,256.43 L39.017,255.991 L39.451,255.552 L39.89,255.109 L40.333,254.661 L40.776,254.213 L41.219,253.77 L41.667,253.322 L42.115,252.874 L42.572,252.421 L43.029,251.968 L43.486,251.515 L43.948,251.058 L44.41,250.601 L44.876,250.144 L45.343,249.682 L45.814,249.22 L46.285,248.758 L46.761,248.292 L47.237,247.826 L47.717,247.36 L48.197,246.889 L48.682,246.418 L49.167,245.947 L49.657,245.471 L49.689,245.443 L46.4,242.062 L46.368,242.094 L45.878,242.57 L45.388,243.046 L44.903,243.517 L44.418,243.993 L43.938,244.459 L43.458,244.93 L42.982,245.396 L42.506,245.862 L42.035,246.328 L41.564,246.79 L41.093,247.252 L40.626,247.714 L40.164,248.171 L39.702,248.633 L39.245,249.09 L38.788,249.543 L38.331,250 L37.883,250.453 L37.435,250.901 L36.987,251.354 L36.544,251.802 L36.101,252.25 L35.662,252.698 L35.223,253.141 L34.789,253.584 L34.355,254.027 L33.921,254.47 L33.491,254.909 L33.066,255.348 L32.641,255.787 L32.221,256.226 L31.801,256.665 L31.385,257.099 L30.974,257.529 L30.558,257.963 L30.147,258.397 L29.741,258.827 L29.709,258.864 L33.145,262.093 L33.145,262.071 L33.147,262.071 Z" id="Shape" fill="#FFFFFF"></path>
        </g>
    </g>
</svg>
